<svg xmlns="http://www.w3.org/2000/svg" xml:space="preserve" data-id="lg_FJo0uLQI8LQHnwyVzp" data-version="1" viewBox="719.5 -0.5 561 171"><g data-padding="20"><g transform="translate(281.06 85.694)scale(.96429)"><filter id="a" width="144%" height="152%" x="-22%" y="-26%"><feGaussianBlur in="SourceAlpha" stdDeviation="5"/><feOffset result="oBlur"/><feFlood flood-color="#f75cff" flood-opacity="1"/><feComposite in2="oBlur" operator="in"/><feMerge><feMergeNode/><feMergeNode in="SourceGraphic"/></feMerge></filter><g filter="url(#a)"><rect width="586.457" height="178.54" x="490.577" y="-90.028" fill="none" rx="0" ry="0" transform="translate(-.62)scale(.95)"/><path fill="#fdd5ff" d="m519.695 52.68-2.66.59q-1.69-2.5-3.42-6.92t-3.24-9.73q-1.51-5.3-2.66-10.98-1.14-5.67-1.73-10.68-2.94-.59-4.75-1.47-1.8-.88-2.8-1.88-.99-.99-1.32-2.03-.34-1.03-.34-1.84 0-2.5 2.44-4.93 2.43-2.43 6.63-4.13.58-7.22 1.98-13.44 1.4-6.23 3.14-11.35 1.73-5.12 3.57-9.06t3.39-6.67q1.54-2.72 2.58-4.16 1.03-1.43 1.03-1.51l2.58 1.25q-.67 1.48-2.07 4.94t-2.91 8.84-2.87 12.6-1.95 16.13q1.25-.22 2.5-.4 1.25-.19 2.58-.34l.3 2.88q-1.55.14-2.95.33-1.4.18-2.73.4-.14 2.14-.14 4.42v9.43h4.78q5.9 0 12.12-1.1 6.23-1.11 12.12-3.43t11.09-5.96q5.19-3.65 9.1-8.73 3.9-5.09 6.15-11.72 2.24-6.63 2.24-14.88 0-6.7-2.1-11.53-2.1-4.82-5.48-8.21-3.39-3.39-7.74-5.45-4.35-2.07-8.8-3.21-4.46-1.14-8.66-1.54-4.2-.41-7.37-.41-6.4 0-13.55 1.66t-14.11 4.27q-6.96 2.62-13.33 5.86t-11.16 6.33l-1.7-2.43q.3-.15 2.62-1.62t6.22-3.57q3.91-2.1 9.25-4.5 5.34-2.39 11.71-4.42 6.37-2.02 13.59-3.38 7.22-1.37 14.88-1.37 8.99 0 17.17 2.25t14.36 6.78q6.19 4.53 9.88 11.42 3.68 6.88 3.68 16.24 0 7.66-2.54 14-2.54 6.33-7 11.38-4.46 5.04-10.5 8.84-6.04 3.79-13.04 6.3-7 2.5-14.58 3.75-7.59 1.26-15.11 1.26h-4.05q.37 8.32 1.73 17.53 1.37 9.21 3.95 19.3m-19.9-44.94q0 1.11 1.29 2.18 1.29 1.06 4.61 1.87-.15-1.03-.15-2.02V4.83q0-1.43.15-2.83-5.9 3.02-5.9 5.74m144.09 2.43 2.87.74q-3.02 8.18-5.49 13.7-2.46 5.53-4.78 8.92t-4.61 4.86q-2.28 1.47-5.01 1.47-3.31 0-5.67-2.32t-2.95-7.18q-2.35 5.08-6.11 8.29-3.76 3.2-9.43 3.2-3.02 0-5.78-1.1-2.77-1.11-4.9-3.43-2.14-2.32-3.43-5.86-1.29-3.53-1.29-8.32 0-4.86 1.22-9.14 1.21-4.27 3.2-7.84t4.61-6.37q2.61-2.8 5.41-4.72 2.8-1.91 5.6-2.94 2.8-1.04 5.16-1.04 2.06 0 3.97.52 1.92.52 3.43 1.66t2.43 3.05q.92 1.92.92 4.79 0 3.39-1.29 5.9-1.29 2.5-3.09 4.2-1.81 1.69-3.68 2.72-1.88 1.03-2.99 1.47l-.88-2.87q.22 0 1.66-.59 1.43-.59 3.02-1.95 1.58-1.36 2.91-3.5 1.32-2.14 1.32-5.23 0-3.54-1.99-5.41-1.99-1.88-5.08-1.88-2.36 0-5.53 1.69-3.16 1.7-6.07 5.31t-4.94 9.13q-2.02 5.53-2.02 13.19 0 7.58 2.68 11.56 2.69 3.98 7.26 3.98 2.28 0 4.38-1.29t3.87-3.42q1.77-2.14 3.17-4.98 1.4-2.83 2.43-5.85 0-2.36.55-5.56.56-3.21 1.73-6.52l4.5 1.47q-.37.96-.74 2.5-.37 1.55-.7 3.39t-.55 3.8q-.22 1.95-.22 3.79 0 5.75 1.14 7.92t3.94 2.17q1.62 0 3.21-1.18 1.58-1.17 3.42-4.12t4.05-7.99q2.21-5.05 5.16-12.79"/><path fill="#fdd5ff" d="m627.165-13.1 1.18-2.73q1.1.66 2.65 1.55 1.54.88 3.61 1.69 2.06.81 4.6 1.51t5.56 1q1.03-6.63 2.66-11.98 1.62-5.34 3.57-9.13t4.05-5.82 4.09-2.03q2.28 0 3.24 1.77t.96 4.72q0 2.13-.44 4.71-.45 2.58-1.18 5.49-.74 2.91-1.77 6.04t-2.14 6.23q7.37-.67 13.59-2.44 6.23-1.76 10.8-3.61l1.4 2.73q-6.04 2.28-12.53 4.09-6.48 1.8-14.51 2.25-1.84 4.78-3.79 9.09-1.96 4.31-3.58 7.48.08 4.13.48 8.95.41 4.83 1.62 9.03 1.22 4.2 3.47 6.99 2.24 2.8 5.93 2.8 3.09 0 5.67-2.61 2.58-2.62 4.75-6.63 2.17-4.02 4.01-8.8 1.85-4.79 3.47-9.07l2.87.74q-1.03 2.65-2.21 5.97-1.18 3.31-2.65 6.74-1.48 3.42-3.24 6.63-1.77 3.2-3.91 5.74-2.13 2.55-4.71 4.06t-5.6 1.51q-3.24 0-6.08-1.48-2.84-1.47-4.93-5.26-2.1-3.8-3.32-10.32t-1.22-16.61q0-8.1.89-15.1-6.34-.81-10.65-2.54t-6.66-3.35m32.41-22.03q-.66 0-1.99 1.32-1.32 1.33-2.8 4.31-1.47 2.99-2.83 7.81-1.37 4.83-2.18 11.9h5.01q1.33-3.68 2.32-7.15 1-3.46 1.73-6.44.74-2.99 1.11-5.38t.37-3.94q0-2.43-.74-2.43m-10.39 38.6v.15q1.26-2.58 2.36-5.2 1.11-2.61 2.14-5.34h-4.2q-.15 2.36-.22 4.98-.08 2.61-.08 5.41"/><path fill="#fdd5ff" d="M703.045-36.9q0 4.64-1.58 10.39-1.58 5.74-4.31 12.52-2.72 6.78-6.37 14.55t-7.77 16.39q-.37 3.54-.63 7.11t-.48 7.18q.96-2.43 2.4-5.63 1.43-3.21 3.24-6.63 1.8-3.43 3.94-6.74 2.14-3.32 4.53-5.93 2.39-2.62 5.08-4.24t5.56-1.62q1.99 0 3.61.74 1.63.73 2.77 2.06t1.76 3.09q.63 1.77.63 3.83 0 2.66-.7 5.71-.7 3.06-1.58 6.23-.89 3.17-1.59 6.33-.7 3.17-.7 5.97 0 2.28 1.11 3.87 1.1 1.58 4.05 1.58 2.06 0 4.05-1.69 1.99-1.7 3.83-4.39 1.84-2.68 3.43-6.04 1.58-3.35 2.95-6.66 1.36-3.32 2.43-6.23 1.06-2.91 1.73-4.68l2.87.74q-1.25 3.32-2.58 7-1.32 3.68-2.83 7.33t-3.28 6.96q-1.77 3.32-3.87 5.86t-4.6 4.05q-2.51 1.51-5.6 1.51-2.8 0-4.64-.81-1.85-.81-2.91-2.21-1.07-1.4-1.51-3.35-.45-1.96-.45-4.31 0-2.51.74-5.71.74-3.21 1.66-6.63.92-3.43 1.66-6.85.73-3.43.73-6.3 0-1.62-.77-2.87-.77-1.26-2.69-1.26-3.02 0-5.82 2.18-2.8 2.17-5.3 5.63-2.51 3.46-4.72 7.81t-4.05 8.66-3.28 8.21q-1.44 3.91-2.47 6.48l-2.87-.44q0-.37-.04-.99-.03-.63-.03-1.73 0-1.11-.04-2.77-.04-1.65-.04-4.01 0-6.93.37-18.27.37-11.35 1.77-27.18.59-7.74 1.77-13.23t2.65-9.21 3.13-5.93 3.21-3.35q1.54-1.14 2.87-1.47 1.32-.33 2.21-.33 3.39 0 5.38 2.65 1.98 2.65 1.98 7.07m-7.21-6.7q-1.92 0-3.43 1.87-1.51 1.88-2.73 5.31-1.21 3.42-2.1 8.21-.88 4.79-1.62 10.65-.73 5.85-1.29 12.6-.55 6.74-1.06 14.03 3.46-6.63 6.44-13.15 2.99-6.52 5.2-12.49 2.21-5.96 3.5-11.16 1.28-5.19 1.28-9.17 0-1.18-.18-2.39-.18-1.22-.66-2.18-.48-.95-1.29-1.54t-2.06-.59"/><path fill="#fdd5ff" d="M745.035 45.9q-5.82 0-9.43-2.06t-3.61-5.45q0-3.54 3.5-5.49 3.49-1.95 9.17-1.95 5.01 0 9.98 1.8 4.97 1.81 9.83 3.94 6.27-4.12 11.57-10.38t9.17-13.59 6.04-15.25q2.18-7.92 2.18-15.36 0-5.75-1.22-10.13-1.22-4.39-3.31-7.55-2.1-3.17-4.9-5.27t-5.9-3.32q-3.09-1.21-6.33-1.73-3.24-.51-6.26-.51-5.97 0-11.2 2.02-5.23 2.03-9.06 5.56-3.83 3.54-6.04 8.29t-2.21 10.21q0 3.16.88 6.59.88 3.42 3.02 6.81-.59.37-1.47.96-.89.59-1.7 1.11-.96.66-2.06 1.25-1.69-3.1-2.62-6.6-.92-3.49-.92-7.1 0-6.41 2.51-12.2 2.5-5.78 6.96-10.13 4.46-4.34 10.57-6.92 6.12-2.58 13.34-2.58 3.97 0 8.17.66 4.2.67 8.18 2.21 3.98 1.55 7.55 4.02t6.26 6.08 4.24 8.43q1.55 4.83 1.55 11.02 0 7.73-2.58 15.69-2.58 7.95-7.08 15.28-4.49 7.33-10.49 13.63-6.01 6.3-12.93 10.65 4.79 2.13 9.61 3.75 4.83 1.62 9.84 1.62 3.31 0 6.63-.88l.95 2.73q-1.91.59-3.83.81-1.91.22-3.75.22-2.88 0-5.71-.56-2.84-.55-5.64-1.51-2.8-.95-5.6-2.13t-5.52-2.43q-4.86 2.72-10.06 4.23-5.19 1.51-10.27 1.51m.14-2.87q4.28 0 8.4-1.18 4.13-1.18 8.03-3.31-4.35-1.92-8.58-3.32-4.24-1.4-8.36-1.4-2.8 0-4.79 1.25-1.99 1.26-1.99 3.32 0 1.69 1.8 3.17 1.81 1.47 5.49 1.47m90.62-79.93q0 4.64-1.58 10.39-1.58 5.74-4.31 12.52-2.72 6.78-6.37 14.55t-7.77 16.39q-.37 3.54-.63 7.11t-.48 7.18q.96-2.43 2.4-5.63 1.43-3.21 3.24-6.63 1.8-3.43 3.94-6.74 2.14-3.32 4.53-5.93 2.39-2.62 5.08-4.24t5.56-1.62q1.99 0 3.61.74 1.62.73 2.77 2.06 1.14 1.33 1.76 3.09.63 1.77.63 3.83 0 2.66-.7 5.71-.7 3.06-1.58 6.23-.89 3.17-1.59 6.33-.7 3.17-.7 5.97 0 2.28 1.11 3.87 1.1 1.58 4.05 1.58 2.06 0 4.05-1.69 1.99-1.7 3.83-4.39 1.84-2.68 3.43-6.04 1.58-3.35 2.95-6.66 1.36-3.32 2.43-6.23 1.06-2.91 1.73-4.68l2.87.74q-1.25 3.32-2.58 7-1.32 3.68-2.83 7.33t-3.28 6.96q-1.77 3.32-3.87 5.86t-4.6 4.05q-2.51 1.51-5.6 1.51-2.8 0-4.64-.81-1.85-.81-2.91-2.21-1.07-1.4-1.51-3.35-.45-1.96-.45-4.31 0-2.51.74-5.71.74-3.21 1.66-6.63.92-3.43 1.66-6.85.73-3.43.73-6.3 0-1.62-.77-2.87-.77-1.26-2.69-1.26-3.02 0-5.82 2.18-2.8 2.17-5.3 5.63-2.51 3.46-4.72 7.81t-4.05 8.66-3.28 8.21q-1.44 3.91-2.47 6.48l-2.87-.44q0-.37-.04-.99-.03-.63-.03-1.73 0-1.11-.04-2.77-.04-1.65-.04-4.01 0-6.93.37-18.27.37-11.35 1.77-27.18.59-7.74 1.77-13.23t2.65-9.21 3.13-5.93 3.2-3.35q1.55-1.14 2.88-1.47 1.32-.33 2.21-.33 3.39 0 5.38 2.65 1.98 2.65 1.98 7.07m-7.21-6.7q-1.92 0-3.43 1.87-1.51 1.88-2.73 5.31-1.21 3.42-2.1 8.21-.88 4.79-1.62 10.65-.73 5.85-1.29 12.6-.55 6.74-1.06 14.03 3.46-6.63 6.44-13.15 2.99-6.52 5.2-12.49 2.21-5.96 3.5-11.16 1.28-5.19 1.28-9.17 0-1.18-.18-2.39-.18-1.22-.66-2.18-.48-.95-1.29-1.54t-2.06-.59"/><path fill="#fdd5ff" d="m921.035 10.17 2.87.74q-3.02 8.18-5.49 13.7-2.46 5.53-4.78 8.92-2.33 3.39-4.61 4.86t-5.01 1.47q-3.31 0-5.67-2.32t-2.95-7.18q-2.36 5.08-6.11 8.29-3.76 3.2-9.43 3.2-3.02 0-5.78-1.1-2.77-1.11-4.9-3.43-2.14-2.32-3.43-5.86-1.29-3.53-1.29-8.32 0-4.86 1.22-9.14 1.21-4.27 3.2-7.84t4.61-6.37q2.61-2.8 5.41-4.72 2.8-1.91 5.6-2.94 2.8-1.04 5.16-1.04 2.06 0 3.97.52 1.92.52 3.43 1.66t2.43 3.05q.92 1.92.92 4.79 0 3.39-1.29 5.9-1.29 2.5-3.09 4.2-1.81 1.69-3.68 2.72-1.88 1.03-2.99 1.47l-.88-2.87q.22 0 1.66-.59 1.43-.59 3.02-1.95 1.58-1.36 2.91-3.5 1.32-2.14 1.32-5.23 0-3.54-1.99-5.41-1.99-1.88-5.08-1.88-2.36 0-5.53 1.69-3.16 1.7-6.07 5.31t-4.94 9.13q-2.03 5.53-2.03 13.19 0 7.58 2.69 11.56t7.26 3.98q2.28 0 4.38-1.29t3.87-3.42q1.77-2.14 3.17-4.98 1.4-2.83 2.43-5.85 0-2.36.55-5.56.55-3.21 1.73-6.52l4.5 1.47q-.37.96-.74 2.5-.37 1.55-.7 3.39t-.55 3.8q-.22 1.95-.22 3.79 0 5.75 1.14 7.92t3.94 2.17q1.62 0 3.2-1.18 1.59-1.17 3.43-4.12t4.05-7.99q2.21-5.05 5.16-12.79"/><path fill="#fdd5ff" d="M938.715 7.89q0-4.42 2.1-7.66t5.41-6.26q-1.03-.67-2.21-1t-2.28-.33q-2.43 0-5.19 1.22-2.77 1.21-5.09 4.09-2.32 2.87-3.86 7.69-1.55 4.83-1.55 12.05 0 5.97 1.43 10.24 1.44 4.27 3.95 7.03 2.5 2.77 5.82 4.06 3.31 1.28 7.07 1.28 4.49 0 8.03-2.32 3.53-2.32 6.48-6.41 2.95-4.08 5.49-9.57t5.05-11.83l2.79.74q-1.47 3.61-3.05 7.44-1.59 3.83-3.47 7.55-1.87 3.72-4.12 7.04-2.25 3.31-5.16 5.82-2.91 2.5-6.52 3.98-3.61 1.47-8.1 1.47-4.57 0-8.66-1.51t-7.18-4.57-4.93-7.7q-1.85-4.64-1.85-10.9 0-6.34 2.1-11.79t5.34-9.43q3.25-3.97 7.15-6.26 3.9-2.28 7.44-2.28 4.13 0 7.37 2.13.59-.44 1.14-.92t1.14-1.06l1.62 2.28q-.44.44-.88.81t-.89.81q1.33 1.62 2.18 3.83.84 2.21.84 4.94 0 3.02-.7 5.34t-1.91 3.94q-1.22 1.62-2.76 2.43-1.55.81-3.25.81-.88 0-1.98-.41-1.11-.4-2.07-1.25-.95-.84-1.62-2.21-.66-1.36-.66-3.35m11.93-5.3q0-2.14-.62-3.83-.63-1.7-1.66-2.95-2.73 2.36-4.68 5.27t-1.95 6.81q0 2.06 1.03 3.2 1.03 1.15 2.43 1.15 1.62 0 2.69-1.03 1.07-1.04 1.66-2.55t.85-3.16q.25-1.66.25-2.91"/><path fill="#fdd5ff" d="M995.065-44.34q0 5.23-1.88 11.53t-4.87 13.44q-2.98 7.15-6.7 14.88-3.72 7.74-7.33 15.84-.44 5.45-.92 10.32-.48 4.86-.92 8.98 1.1-2.57 2.54-6t3.21-7.04q1.76-3.61 3.86-7.1 2.1-3.5 4.5-6.27 2.39-2.76 5.08-4.45 2.69-1.7 5.71-1.7 2.06 0 3.94.89 1.88.88 3.28 2.39t2.21 3.5.81 4.2q0 3.68-1.7 6.52-1.69 2.83-4.31 4.9-2.61 2.06-5.85 3.46t-6.34 2.21q.3 1.4 1.26 3.32.95 1.91 2.54 3.64 1.58 1.73 3.79 2.95 2.21 1.21 4.94 1.21 5.74 0 10.83-6.74 5.08-6.74 10.09-20.37l2.87.74q-2.43 6.63-5.01 12.19t-5.56 9.62q-2.98 4.05-6.45 6.33-3.46 2.29-7.58 2.29-1.62 0-3.72-.45-2.1-.44-4.35-1.87-2.25-1.44-4.46-4.09-2.21-2.66-4.05-7.15-.22-.44-.4-1.1-.19-.67-.19-1.04 0-1.4.66-1.95.67-.55 1.66-.77 1-.22 2.18-.33 1.17-.11 2.28-.56 5.45-2.13 8.07-6.15 2.61-4.01 2.61-9.09 0-3.25-1.4-4.54-1.4-1.28-3.24-1.28-1.47 0-2.95.77-1.47.77-2.65 1.88-3.02 3.02-5.63 7.03-2.62 4.02-4.79 8.33-2.18 4.31-3.91 8.47t-2.94 7.44q-1.22 3.28-1.85 5.34l-.62 2.06-2.88-.44q-.07-.81-.07-1.99-.07-1.03-.07-2.43v-3.31q0-4.2.14-10.35.15-6.16.56-13.78.4-7.62 1.18-16.54.77-8.91 2.02-18.64 1.03-7.95 2.69-13.4 1.66-5.46 3.72-8.81t4.35-4.82q2.28-1.48 4.64-1.48 1.91 0 3.31.74t2.29 2.03q.88 1.29 1.32 2.98.45 1.69.45 3.61m-6.63-6.34q-1.85 0-3.36 2.14t-2.76 5.89q-1.25 3.76-2.32 8.81-1.07 5.04-1.92 10.9-.84 5.86-1.58 12.23T975.165 2q1.77-3.83 3.76-8.03t3.87-8.55q1.88-4.34 3.61-8.58t3.02-8.14q1.29-3.91 2.06-7.22.78-3.32.78-5.82 0-.88-.11-1.99-.12-1.1-.52-2.06-.41-.96-1.14-1.62-.74-.67-2.06-.67"/></g></g><path fill="transparent" stroke="transparent" d="M720 0h560v170H720z"/></g></svg>